{
  "accessors": [
    {
      "bufferView": 2,
      "componentType": 5126,
      "count": 49935,
      "max": [
        251.1714630126953,
        56.74006271362305,
        57.69343566894531
      ],
      "min": [
        133.18276977539063,
        -12.448719024658203,
        -63.21154022216797
      ],
      "type": "VEC3"
    },
    {
      "bufferView": 2,
      "byteOffset": 599220,
      "componentType": 5126,
      "count": 49935,
      "max": [
        0.9999688863754272,
        1.0,
        0.9999999403953552
      ],
      "min": [
        -0.9999998807907104,
        -1.0,
        -0.9999999403953552
      ],
      "type": "VEC3"
    },
    {
      "bufferView": 3,
      "componentType": 5126,
      "count": 49935,
      "max": [
        0.9999855756759644,
        1.0,
        0.9999690055847168,
        1.0
      ],
      "min": [
        -0.9999820590019226,
        -0.9999999403953552,
        -0.999966561794281,
        -1.0
      ],
      "type": "VEC4"
    },
    {
      "bufferView": 1,
      "componentType": 5126,
      "count": 49935,
      "max": [
        0.9938287734985352,
        0.9987952709197998
      ],
      "min": [
        0.016823768615722656,
        0.010993719100952148
      ],
      "type": "VEC2"
    },
    {
      "bufferView": 0,
      "componentType": 5125,
      "count": 260736,
      "type": "SCALAR"
    },
    {
      "bufferView": 2,
      "byteOffset": 1198440,
      "componentType": 5126,
      "count": 6168,
      "max": [
        253.781982421875,
        3.765453338623047,
        59.385093688964844
      ],
      "min": [
        131.42247009277344,
        -0.4596138000488281,
        -65.25691986083984
      ],
      "type": "VEC3"
    },
    {
      "bufferView": 2,
      "byteOffset": 1272456,
      "componentType": 5126,
      "count": 6168,
      "max": [
        0.9999499917030334,
        1.0,
        0.9999493956565857
      ],
      "min": [
        -0.9999498128890991,
        -1.0,
        -0.9999493956565857
      ],
      "type": "VEC3"
    },
    {
      "bufferView": 3,
      "byteOffset": 798960,
      "componentType": 5126,
      "count": 6168,
      "max": [
        0.9997832179069519,
        0.9998902082443237,
        0.9999872446060181,
        1.0
      ],
      "min": [
        -0.9997349381446838,
        -0.9999528527259827,
        -0.9997491836547852,
        1.0
      ],
      "type": "VEC4"
    },
    {
      "bufferView": 1,
      "byteOffset": 399480,
      "componentType": 5126,
      "count": 6168,
      "max": [
        0.7145293951034546,
        0.6366643905639648
      ],
      "min": [
        0.46421629190444946,
        0.39049750566482544
      ],
      "type": "VEC2"
    },
    {
      "bufferView": 0,
      "byteOffset": 1042944,
      "componentType": 5125,
      "count": 24960,
      "type": "SCALAR"
    },
    {
      "bufferView": 2,
      "byteOffset": 1346472,
      "componentType": 5126,
      "count": 1602,
      "max": [
        251.30291748046875,
        7.700328826904297,
        56.81328582763672
      ],
      "min": [
        133.89816284179688,
        3.208568572998047,
        -62.68750762939453
      ],
      "type": "VEC3"
    },
    {
      "bufferView": 2,
      "byteOffset": 1365696,
      "componentType": 5126,
      "count": 1602,
      "max": [
        0.9997172951698303,
        1.0,
        0.9995878338813782
      ],
      "min": [
        -0.9998329281806946,
        -1.0,
        -0.999583899974823
      ],
      "type": "VEC3"
    },
    {
      "bufferView": 3,
      "byteOffset": 897648,
      "componentType": 5126,
      "count": 1602,
      "max": [
        0.9996706247329712,
        0.8953559994697571,
        0.9998434782028198,
        1.0
      ],
      "min": [
        -0.9998438954353333,
        -0.9999951124191284,
        -0.9996218681335449,
        1.0
      ],
      "type": "VEC4"
    },
    {
      "bufferView": 1,
      "byteOffset": 448824,
      "componentType": 5126,
      "count": 1602,
      "max": [
        0.9921331405639648,
        0.6471160054206848
      ],
      "min": [
        0.7310298681259155,
        0.3835737705230713
      ],
      "type": "VEC2"
    },
    {
      "bufferView": 0,
      "byteOffset": 1142784,
      "componentType": 5125,
      "count": 7680,
      "type": "SCALAR"
    }
  ],
  "asset": {
    "extras": {
      "author": "matthew.baldini (https://sketchfab.com/matthew.baldini)",
      "license": "CC-BY-4.0 (http://creativecommons.org/licenses/by/4.0/)",
      "source": "https://sketchfab.com/3d-models/rusted-medieval-chandelier-0b116d7adcdb4427a9a30b28f86e7051",
      "title": "Rusted Medieval Chandelier"
    },
    "generator": "Sketchfab-12.96.0",
    "version": "2.0"
  },
  "bufferViews": [
    {
      "buffer": 0,
      "byteLength": 1173504,
      "name": "floatBufferViews",
      "target": 34963
    },
    {
      "buffer": 0,
      "byteLength": 461640,
      "byteOffset": 1173504,
      "byteStride": 8,
      "name": "floatBufferViews",
      "target": 34962
    },
    {
      "buffer": 0,
      "byteLength": 1384920,
      "byteOffset": 1635144,
      "byteStride": 12,
      "name": "floatBufferViews",
      "target": 34962
    },
    {
      "buffer": 0,
      "byteLength": 923280,
      "byteOffset": 3020064,
      "byteStride": 16,
      "name": "floatBufferViews",
      "target": 34962
    }
  ],
  "buffers": [
    {
      "byteLength": 3943344,
      "uri": "scene.bin"
    }
  ],
  "images": [
    {
      "uri": "textures/m_chandelierBody_baseColor.png"
    },
    {
      "uri": "textures/m_chandelierBody_metallicRoughness.png"
    },
    {
      "uri": "textures/m_chandelierBody_normal.png"
    },
    {
      "uri": "textures/m_candleHolder_baseColor.png"
    },
    {
      "uri": "textures/m_candleHolder_metallicRoughness.png"
    },
    {
      "uri": "textures/m_candleHolder_normal.png"
    },
    {
      "uri": "textures/m_candle_baseColor.png"
    },
    {
      "uri": "textures/m_candle_metallicRoughness.png"
    },
    {
      "uri": "textures/m_candle_normal.png"
    }
  ],
  "materials": [
    {
      "doubleSided": true,
      "name": "m_chandelierBody",
      "normalTexture": {
        "index": 2
      },
      "pbrMetallicRoughness": {
        "baseColorTexture": {
          "index": 0
        },
        "metallicRoughnessTexture": {
          "index": 1
        }
      }
    },
    {
      "doubleSided": true,
      "name": "m_candleHolder",
      "normalTexture": {
        "index": 5
      },
      "pbrMetallicRoughness": {
        "baseColorTexture": {
          "index": 3
        },
        "metallicRoughnessTexture": {
          "index": 4
        }
      }
    },
    {
      "doubleSided": true,
      "name": "m_candle",
      "normalTexture": {
        "index": 8
      },
      "pbrMetallicRoughness": {
        "baseColorTexture": {
          "index": 6
        },
        "metallicRoughnessTexture": {
          "index": 7
        }
      }
    }
  ],
  "meshes": [
    {
      "name": "Chandelier_No_Flame_geo_m_chandelierBody_0",
      "primitives": [
        {
          "attributes": {
            "NORMAL": 1,
            "POSITION": 0,
            "TANGENT": 2,
            "TEXCOORD_0": 3
          },
          "indices": 4,
          "material": 0,
          "mode": 4
        }
      ]
    },
    {
      "name": "Chandelier_No_Flame_geo_m_candleHolder_0",
      "primitives": [
        {
          "attributes": {
            "NORMAL": 6,
            "POSITION": 5,
            "TANGENT": 7,
            "TEXCOORD_0": 8
          },
          "indices": 9,
          "material": 1,
          "mode": 4
        }
      ]
    },
    {
      "name": "Chandelier_No_Flame_geo_m_candle_0",
      "primitives": [
        {
          "attributes": {
            "NORMAL": 11,
            "POSITION": 10,
            "TANGENT": 12,
            "TEXCOORD_0": 13
          },
          "indices": 14,
          "material": 2,
          "mode": 4
        }
      ]
    }
  ],
  "nodes": [
    {
      "children": [
        1
      ],
      "matrix": [
        1.0,
        0.0,
        0.0,
        0.0,
        0.0,
        2.220446049250313e-16,
        -1.0,
        0.0,
        0.0,
        1.0,
        2.220446049250313e-16,
        0.0,
        0.0,
        0.0,
        0.0,
        1.0
      ],
      "name": "Sketchfab_model"
    },
    {
      "children": [
        2
      ],
      "matrix": [
        0.009999999776482582,
        0.0,
        0.0,
        0.0,
        0.0,
        0.0,
        0.009999999776482582,
        0.0,
        0.0,
        -0.009999999776482582,
        0.0,
        0.0,
        0.0,
        0.0,
        0.0,
        1.0
      ],
      "name": "9cc9e2c838424974943f7394c32560c5.fbx"
    },
    {
      "children": [
        3
      ],
      "name": "RootNode"
    },
    {
      "children": [
        4,
        5,
        6
      ],
      "name": "Chandelier_No_Flame_geo"
    },
    {
      "mesh": 0,
      "name": "Chandelier_No_Flame_geo_m_chandelierBody_0"
    },
    {
      "mesh": 1,
      "name": "Chandelier_No_Flame_geo_m_candleHolder_0"
    },
    {
      "mesh": 2,
      "name": "Chandelier_No_Flame_geo_m_candle_0"
    }
  ],
  "samplers": [
    {
      "magFilter": 9729,
      "minFilter": 9987,
      "wrapS": 10497,
      "wrapT": 10497
    }
  ],
  "scene": 0,
  "scenes": [
    {
      "name": "Sketchfab_Scene",
      "nodes": [
        0
      ]
    }
  ],
  "textures": [
    {
      "sampler": 0,
      "source": 0
    },
    {
      "sampler": 0,
      "source": 1
    },
    {
      "sampler": 0,
      "source": 2
    },
    {
      "sampler": 0,
      "source": 3
    },
    {
      "sampler": 0,
      "source": 4
    },
    {
      "sampler": 0,
      "source": 5
    },
    {
      "sampler": 0,
      "source": 6
    },
    {
      "sampler": 0,
      "source": 7
    },
    {
      "sampler": 0,
      "source": 8
    }
  ]
}
